<svg width="1005" height="832" viewBox="0 0 1005 832" fill="none" xmlns="http://www.w3.org/2000/svg">
<g opacity="0.2" filter="url(#filter0_f_11_29)">
<mask id="path-1-inside-1_11_29" fill="white">
<path d="M758.847 565.152C674.364 609.366 449.318 706.342 347.846 679.325C246.374 652.307 148.605 493.605 150.015 403.047C151.425 312.489 257.275 187.445 356.307 135.976C455.339 84.5081 661.133 47.8936 744.206 94.2378C827.279 140.582 852.305 335.556 854.745 414.042"/>
</mask>
<path d="M758.847 565.152C674.364 609.366 449.318 706.342 347.846 679.325C246.374 652.307 148.605 493.605 150.015 403.047C151.425 312.489 257.275 187.445 356.307 135.976C455.339 84.5081 661.133 47.8936 744.206 94.2378C827.279 140.582 852.305 335.556 854.745 414.042" fill="url(#paint0_linear_11_29)"/>
<path d="M854.246 414.057C855.465 453.286 852.604 479.881 838.966 502.188C825.322 524.504 800.846 542.608 758.615 564.709L759.079 565.595C801.331 543.483 826.024 525.274 839.819 502.71C853.62 480.137 856.466 453.283 855.245 414.026L854.246 414.057ZM758.383 564.266C716.183 586.352 638.85 621.627 559.402 648.001C519.679 661.188 479.45 672.142 442.832 678.114C406.194 684.089 373.268 685.058 348.104 678.358L347.589 680.291C373.16 687.099 406.417 686.079 443.154 680.088C479.912 674.093 520.25 663.106 560.032 649.899C639.596 623.487 717.028 588.167 759.31 566.038L758.383 564.266ZM348.104 678.358C297.711 664.941 248.075 618.747 211.177 564.452C174.282 510.16 150.314 448.05 151.015 403.063L149.015 403.032C148.306 448.603 172.518 511.122 209.523 565.576C246.525 620.025 296.51 666.691 347.589 680.291L348.104 678.358ZM151.015 403.063C151.715 358.113 178.367 304.428 217.335 255.476C256.281 206.552 307.397 162.522 356.768 136.864L355.846 135.089C306.185 160.898 254.86 205.126 215.77 254.23C176.703 303.307 149.725 357.423 149.015 403.032L151.015 403.063ZM356.768 136.864C406.153 111.198 482.24 89.2024 556.372 79.4188C593.43 74.528 629.968 72.6933 662.407 74.9678C694.862 77.2434 723.133 83.6271 743.719 95.1111L744.693 93.3645C723.742 81.6764 695.137 75.2578 662.547 72.9727C629.94 70.6865 593.263 72.5327 556.11 77.436C481.819 87.2407 405.492 109.287 355.846 135.089L356.768 136.864ZM743.719 95.1111C764.254 106.567 781.28 127.258 795.301 153.197C809.317 179.125 820.285 210.212 828.746 242.341C845.668 306.6 852.528 374.888 853.746 414.073L855.745 414.011C854.523 374.71 847.649 306.267 830.68 241.832C822.195 209.614 811.178 178.363 797.061 152.246C782.949 126.141 765.695 105.081 744.693 93.3645L743.719 95.1111Z" fill="black" mask="url(#path-1-inside-1_11_29)"/>
</g>
<defs>
<filter id="filter0_f_11_29" x="0" y="-77" width="1004.75" height="911" filterUnits="userSpaceOnUse" color-interpolation-filters="sRGB">
<feFlood flood-opacity="0" result="BackgroundImageFix"/>
<feBlend mode="normal" in="SourceGraphic" in2="BackgroundImageFix" result="shape"/>
<feGaussianBlur stdDeviation="75" result="effect1_foregroundBlur_11_29"/>
</filter>
<linearGradient id="paint0_linear_11_29" x1="150" y1="378.5" x2="855" y2="378.5" gradientUnits="userSpaceOnUse">
<stop offset="0.175" stop-color="#C96FF4"/>
<stop offset="1" stop-color="#FF35DF"/>
</linearGradient>
</defs>
</svg>
